<svg width="228" height="110" viewBox="0 0 228 110" fill="none" xmlns="http://www.w3.org/2000/svg">
<path d="M57.8521 2.27677L36.6999 106.457L40.8461 107.849L61.9983 3.66905L57.8521 2.27677Z" fill="url(#paint0_linear_194_133)"/>
<path d="M95.5508 43.1896H83.6511L70.9164 51.1059V58.4623L95.5508 43.1896Z" fill="url(#paint1_linear_194_133)"/>
<path d="M95.5508 66.1728H83.6511L70.9164 58.2566V50.9001L95.5508 66.1728Z" fill="url(#paint2_linear_194_133)"/>
<path d="M95.5508 43.1896H83.2842L63.9292 29.668L56.3662 24.5065H63.2848L95.5508 43.1896Z" fill="url(#paint3_linear_194_133)"/>
<path d="M95.3477 66.1669H83.0811L63.7261 79.6886L56.163 84.85H63.0817L95.3477 66.1669Z" fill="url(#paint4_linear_194_133)"/>
<path d="M0 54.3119H5.48381L26.8575 77.0642L33.9765 84.8364H27.5312L0 54.3119Z" fill="url(#paint5_linear_194_133)"/>
<path d="M0 54.3119H5.48381L26.8575 31.5596L33.9765 23.7874H27.5312L0 54.3119Z" fill="url(#paint6_linear_194_133)"/>
<path d="M16.6328 54.3119H20.9056L31.3334 43.3846H26.402L16.6328 54.3119Z" fill="url(#paint7_linear_194_133)"/>
<path d="M16.6328 54.3119H20.9056L31.3334 65.034H26.402L16.6328 54.3119Z" fill="url(#paint8_linear_194_133)"/>
<path d="M117.164 51H114.621L121.435 37.8479H124.376L126.829 51H124.286L122.52 40.5451H122.417L117.164 51ZM118.102 45.8432H125.037L124.716 47.7569H117.781L118.102 45.8432ZM128.561 51L130.745 37.8479H139.299L138.965 39.8452H132.793L132.203 43.4157H137.931L137.597 45.4129H131.869L131.278 49.0028H137.501L137.167 51H128.561ZM152.538 37.8479L150.354 51H148.235L143.528 42.0414H143.425L141.929 51H139.546L141.73 37.8479H143.862L148.562 46.8129H148.684L150.168 37.8479H152.538ZM154.639 51H152.096L158.91 37.8479H161.851L164.304 51H161.761L159.995 40.5451H159.892L154.639 51ZM155.577 45.8432H162.512L162.191 47.7569H155.256L155.577 45.8432ZM158.724 36.5507L157.33 36.5186C157.454 35.7565 157.747 35.1593 158.21 34.7269C158.672 34.2945 159.19 34.0783 159.764 34.0783C160.042 34.0783 160.278 34.1254 160.47 34.2196C160.663 34.3095 160.836 34.4144 160.99 34.5342C161.145 34.6541 161.299 34.7611 161.453 34.8553C161.607 34.9452 161.785 34.9902 161.986 34.9902C162.23 34.9902 162.438 34.8981 162.609 34.714C162.784 34.5257 162.893 34.2902 162.936 34.0076L164.304 34.0654C164.176 34.8318 163.878 35.4269 163.412 35.8507C162.949 36.2703 162.431 36.4822 161.857 36.4865C161.549 36.4865 161.299 36.4415 161.106 36.3516C160.918 36.2574 160.755 36.1504 160.618 36.0305C160.481 35.9107 160.342 35.8058 160.201 35.7159C160.059 35.6217 159.882 35.5746 159.668 35.5746C159.436 35.5746 159.233 35.6645 159.057 35.8443C158.886 36.0241 158.775 36.2596 158.724 36.5507Z" fill="white"/>
<path d="M117.659 59.8479H120.574L122.905 69.378H123.059L128.537 59.8479H131.453L129.269 73H126.983L128.486 63.9644H128.37L123.233 72.9615H121.531L119.399 63.9451H119.277L117.761 73H115.475L117.659 59.8479ZM133.553 73H131.01L137.823 59.8479H140.765L143.218 73H140.675L138.909 62.5451H138.806L133.553 73ZM134.49 67.8432H141.426L141.105 69.7569H134.169L134.49 67.8432ZM144.95 73L147.134 59.8479H152.066C153.076 59.8479 153.896 60.0235 154.525 60.3745C155.155 60.7256 155.593 61.2179 155.842 61.8516C156.09 62.4809 156.144 63.2152 156.002 64.0543C155.865 64.8934 155.566 65.6234 155.103 66.2442C154.645 66.8607 154.039 67.338 153.286 67.6762C152.537 68.0145 151.657 68.1836 150.646 68.1836H147.134L147.468 66.2056H150.666C151.256 66.2056 151.753 66.1243 152.156 65.9616C152.558 65.7946 152.875 65.5527 153.106 65.2359C153.341 64.9148 153.498 64.5209 153.575 64.0543C153.648 63.5876 153.62 63.1895 153.491 62.8598C153.367 62.5259 153.13 62.2733 152.778 62.102C152.432 61.9265 151.963 61.8387 151.372 61.8387H149.189L147.333 73H144.95ZM152.734 67.0405L155 73H152.342L150.133 67.0405H152.734ZM158.054 61.8452L158.388 59.8479H168.881L168.547 61.8452H164.482L162.633 73H160.27L162.119 61.8452H158.054ZM173.287 59.8479L171.103 73H168.721L170.904 59.8479H173.287ZM186.675 59.8479L184.491 73H182.372L177.665 64.0414H177.562L176.066 73H173.683L175.867 59.8479H177.999L182.7 68.8129H182.822L184.305 59.8479H186.675ZM187.087 73L189.271 59.8479H197.825L197.491 61.8452H191.32L190.729 65.4157H196.457L196.123 67.4129H190.395L189.804 71.0028H196.027L195.693 73H187.087ZM198.072 73L200.256 59.8479H202.638L200.789 71.0028H206.581L206.247 73H198.072ZM208.315 73L210.499 59.8479H212.881L211.032 71.0028H216.824L216.49 73H208.315ZM223.124 59.8479L220.941 73H218.558L220.741 59.8479H223.124Z" fill="#4CD5B6"/>
<defs>
<linearGradient id="paint0_linear_194_133" x1="61.9967" y1="2.70675" x2="12.7301" y2="92.6706" gradientUnits="userSpaceOnUse">
<stop stop-color="#4CD5B6" stop-opacity="0"/>
<stop offset="0.536458" stop-color="#4CD5B6"/>
<stop offset="1" stop-color="#31544C" stop-opacity="0"/>
</linearGradient>
<linearGradient id="paint1_linear_194_133" x1="97.5341" y1="13.5238" x2="62.6756" y2="36.904" gradientUnits="userSpaceOnUse">
<stop stop-color="#4CD5B6"/>
<stop offset="1" stop-color="#396D62"/>
</linearGradient>
<linearGradient id="paint2_linear_194_133" x1="95.5508" y1="57.6952" x2="66.2793" y2="57.6952" gradientUnits="userSpaceOnUse">
<stop stop-color="#4CD5B6"/>
<stop offset="1" stop-color="#396D62"/>
</linearGradient>
<linearGradient id="paint3_linear_194_133" x1="95.5508" y1="35.8455" x2="71.8479" y2="19.1795" gradientUnits="userSpaceOnUse">
<stop stop-color="#4CD5B6"/>
<stop offset="0.956372" stop-color="#396D62" stop-opacity="0"/>
</linearGradient>
<linearGradient id="paint4_linear_194_133" x1="95.3477" y1="73.5111" x2="44.987" y2="73.5111" gradientUnits="userSpaceOnUse">
<stop stop-color="#4CD5B6"/>
<stop offset="1" stop-color="#396D62"/>
</linearGradient>
<linearGradient id="paint5_linear_194_133" x1="-2.52718" y1="66.3108" x2="44.3879" y2="66.3108" gradientUnits="userSpaceOnUse">
<stop stop-color="#4CD5B6"/>
<stop offset="1" stop-color="#396D62"/>
</linearGradient>
<linearGradient id="paint6_linear_194_133" x1="5.50033" y1="71.5493" x2="42.367" y2="37.4497" gradientUnits="userSpaceOnUse">
<stop stop-color="#4CD5B6"/>
<stop offset="1" stop-color="#396D62" stop-opacity="0"/>
</linearGradient>
<linearGradient id="paint7_linear_194_133" x1="12.6191" y1="57.2874" x2="31.7245" y2="49.528" gradientUnits="userSpaceOnUse">
<stop stop-color="#4CD5B6"/>
<stop offset="1" stop-color="#4CD5B6" stop-opacity="0"/>
</linearGradient>
<linearGradient id="paint8_linear_194_133" x1="18.1855" y1="55.774" x2="29.3941" y2="57.2328" gradientUnits="userSpaceOnUse">
<stop stop-color="#4CD5B6"/>
<stop offset="1" stop-color="#396D62"/>
</linearGradient>
</defs>
</svg>
