<svg width="282" height="110" viewBox="0 0 282 110" fill="none" xmlns="http://www.w3.org/2000/svg">
<path d="M57.8521 2.27677L36.6999 106.457L40.8461 107.849L61.9983 3.66905L57.8521 2.27677Z" fill="url(#paint0_linear_194_133)"/>
<path d="M95.5508 43.1896H83.6511L70.9164 51.1059V58.4623L95.5508 43.1896Z" fill="url(#paint1_linear_194_133)"/>
<path d="M95.5508 66.1728H83.6511L70.9164 58.2566V50.9001L95.5508 66.1728Z" fill="url(#paint2_linear_194_133)"/>
<path d="M95.5508 43.1896H83.2842L63.9292 29.668L56.3662 24.5065H63.2848L95.5508 43.1896Z" fill="url(#paint3_linear_194_133)"/>
<path d="M95.3477 66.1669H83.0811L63.7261 79.6886L56.163 84.85H63.0817L95.3477 66.1669Z" fill="url(#paint4_linear_194_133)"/>
<path d="M0 54.3119H5.48381L26.8575 77.0642L33.9765 84.8364H27.5312L0 54.3119Z" fill="url(#paint5_linear_194_133)"/>
<path d="M0 54.3119H5.48381L26.8575 31.5596L33.9765 23.7874H27.5312L0 54.3119Z" fill="url(#paint6_linear_194_133)"/>
<path d="M16.6328 54.3119H20.9056L31.3334 43.3846H26.402L16.6328 54.3119Z" fill="url(#paint7_linear_194_133)"/>
<path d="M16.6328 54.3119H20.9056L31.3334 65.034H26.402L16.6328 54.3119Z" fill="url(#paint8_linear_194_133)"/>
<path d="M117.164 50.7697H114.621L121.435 37.6177H124.376L126.829 50.7697H124.286L122.52 40.3149H122.417L117.164 50.7697ZM118.102 45.6129H125.037L124.716 47.5267H117.781L118.102 45.6129ZM128.561 50.7697L130.745 37.6177H139.299L138.965 39.6149H132.793L132.203 43.1854H137.931L137.597 45.1827H131.869L131.278 48.7725H137.501L137.167 50.7697H128.561ZM152.538 37.6177L150.354 50.7697H148.235L143.528 41.8112H143.425L141.929 50.7697H139.546L141.73 37.6177H143.862L148.562 46.5826H148.684L150.168 37.6177H152.538ZM154.639 50.7697H152.096L158.91 37.6177H161.851L164.304 50.7697H161.761L159.995 40.3149H159.892L154.639 50.7697ZM155.577 45.6129H162.512L162.191 47.5267H155.256L155.577 45.6129ZM158.724 36.3204L157.33 36.2883C157.454 35.5263 157.747 34.929 158.21 34.4966C158.672 34.0642 159.19 33.848 159.764 33.848C160.042 33.848 160.278 33.8951 160.47 33.9893C160.663 34.0792 160.836 34.1841 160.99 34.304C161.145 34.4238 161.299 34.5309 161.453 34.625C161.607 34.715 161.785 34.7599 161.986 34.7599C162.23 34.7599 162.438 34.6679 162.609 34.4838C162.784 34.2954 162.893 34.0599 162.936 33.7774L164.304 33.8352C164.176 34.6015 163.878 35.1966 163.412 35.6204C162.949 36.04 162.431 36.2519 161.857 36.2562C161.549 36.2562 161.299 36.2113 161.106 36.1213C160.918 36.0272 160.755 35.9201 160.618 35.8003C160.481 35.6804 160.342 35.5755 160.201 35.4856C160.059 35.3914 159.882 35.3443 159.668 35.3443C159.436 35.3443 159.233 35.4342 159.057 35.614C158.886 35.7938 158.775 36.0293 158.724 36.3204Z" fill="white"/>
<path d="M117.659 59.6177H120.574L122.905 69.1478H123.059L128.537 59.6177H131.453L129.269 72.7697H126.983L128.486 63.7341H128.37L123.233 72.7312H121.531L119.399 63.7148H119.277L117.761 72.7697H115.475L117.659 59.6177ZM133.553 72.7697H131.01L137.823 59.6177H140.765L143.218 72.7697H140.675L138.909 62.3149H138.806L133.553 72.7697ZM134.49 67.6129H141.426L141.105 69.5267H134.169L134.49 67.6129ZM144.95 72.7697L147.134 59.6177H152.066C153.076 59.6177 153.896 59.7932 154.525 60.1442C155.155 60.4953 155.593 60.9877 155.842 61.6213C156.09 62.2506 156.144 62.9849 156.002 63.824C155.865 64.6631 155.566 65.3931 155.103 66.0139C154.645 66.6304 154.039 67.1077 153.286 67.446C152.537 67.7842 151.657 67.9533 150.646 67.9533H147.134L147.468 65.9753H150.666C151.256 65.9753 151.753 65.894 152.156 65.7313C152.558 65.5643 152.875 65.3224 153.106 65.0056C153.341 64.6845 153.498 64.2907 153.575 63.824C153.648 63.3573 153.62 62.9592 153.491 62.6295C153.367 62.2956 153.13 62.043 152.778 61.8717C152.432 61.6962 151.963 61.6084 151.372 61.6084H149.189L147.333 72.7697H144.95ZM152.734 66.8102L155 72.7697H152.342L150.133 66.8102H152.734ZM158.054 61.6149L158.388 59.6177H168.881L168.547 61.6149H164.482L162.633 72.7697H160.27L162.119 61.6149H158.054ZM173.287 59.6177L171.103 72.7697H168.721L170.904 59.6177H173.287ZM186.675 59.6177L184.491 72.7697H182.372L177.665 63.8112H177.562L176.066 72.7697H173.683L175.867 59.6177H177.999L182.7 68.5826H182.822L184.305 59.6177H186.675ZM187.087 72.7697L189.271 59.6177H197.825L197.491 61.6149H191.32L190.729 65.1854H196.457L196.123 67.1827H190.395L189.804 70.7725H196.027L195.693 72.7697H187.087ZM198.072 72.7697L200.256 59.6177H202.638L200.789 70.7725H206.581L206.247 72.7697H198.072ZM208.315 72.7697L210.499 59.6177H212.881L211.032 70.7725H216.824L216.49 72.7697H208.315ZM223.124 59.6177L220.941 72.7697H218.558L220.741 59.6177H223.124Z" fill="#4CD5B6"/>
<defs>
<linearGradient id="paint0_linear_194_133" x1="61.9967" y1="2.70675" x2="12.7301" y2="92.6706" gradientUnits="userSpaceOnUse">
<stop stop-color="#4CD5B6" stop-opacity="0"/>
<stop offset="0.536458" stop-color="#4CD5B6"/>
<stop offset="1" stop-color="#31544C" stop-opacity="0"/>
</linearGradient>
<linearGradient id="paint1_linear_194_133" x1="97.5341" y1="13.5238" x2="62.6756" y2="36.904" gradientUnits="userSpaceOnUse">
<stop stop-color="#4CD5B6"/>
<stop offset="1" stop-color="#396D62"/>
</linearGradient>
<linearGradient id="paint2_linear_194_133" x1="95.5508" y1="57.6952" x2="66.2793" y2="57.6952" gradientUnits="userSpaceOnUse">
<stop stop-color="#4CD5B6"/>
<stop offset="1" stop-color="#396D62"/>
</linearGradient>
<linearGradient id="paint3_linear_194_133" x1="95.5508" y1="35.8455" x2="71.8479" y2="19.1795" gradientUnits="userSpaceOnUse">
<stop stop-color="#4CD5B6"/>
<stop offset="0.956372" stop-color="#396D62" stop-opacity="0"/>
</linearGradient>
<linearGradient id="paint4_linear_194_133" x1="95.3477" y1="73.5111" x2="44.987" y2="73.5111" gradientUnits="userSpaceOnUse">
<stop stop-color="#4CD5B6"/>
<stop offset="1" stop-color="#396D62"/>
</linearGradient>
<linearGradient id="paint5_linear_194_133" x1="-2.52718" y1="66.3108" x2="44.3879" y2="66.3108" gradientUnits="userSpaceOnUse">
<stop stop-color="#4CD5B6"/>
<stop offset="1" stop-color="#396D62"/>
</linearGradient>
<linearGradient id="paint6_linear_194_133" x1="5.50033" y1="71.5493" x2="42.367" y2="37.4497" gradientUnits="userSpaceOnUse">
<stop stop-color="#4CD5B6"/>
<stop offset="1" stop-color="#396D62" stop-opacity="0"/>
</linearGradient>
<linearGradient id="paint7_linear_194_133" x1="12.6191" y1="57.2874" x2="31.7245" y2="49.528" gradientUnits="userSpaceOnUse">
<stop stop-color="#4CD5B6"/>
<stop offset="1" stop-color="#4CD5B6" stop-opacity="0"/>
</linearGradient>
<linearGradient id="paint8_linear_194_133" x1="18.1855" y1="55.774" x2="29.3941" y2="57.2328" gradientUnits="userSpaceOnUse">
<stop stop-color="#4CD5B6"/>
<stop offset="1" stop-color="#396D62"/>
</linearGradient>
</defs>
</svg>
